# xmcd CD database file
#
# Track frame offsets:
#	150
#	14903
#	28684
#	43949
#	59953
#	76085
#	89769
#	112422
#	127959
#	146077
#
# Disc length: 2194 seconds
#
# Revision: 0
# Processed by: cddbd v1.5.1PL2 Copyright (c) Steve Scherf et al.
# Submitted via: CDex 1.70beta2
#
DISCID=9c08900a
DTITLE=Danielle Peck - Danielle Peck
DYEAR=2006
DGENRE=Country
TTITLE0=Findin' A Good Man
TTITLE1=Isn't That Everything
TTITLE2=Kiss You On Te Mouth
TTITLE3=I Don't
TTITLE4=Sucks To Be You
TTITLE5=Honky-Tonk Time
TTITLE6=Thirsty Again
TTITLE7=Only The Lonely Talkin'
TTITLE8=A Woman Does Too
TTITLE9=Somebody For You
EXTD=YEAR: 2006
EXTT0=
EXTT1=
EXTT2=
EXTT3=
EXTT4=
EXTT5=
EXTT6=
EXTT7=
EXTT8=
EXTT9=
PLAYORDER=
